PathFileType	4	(X/Y/Z)	/Users/itak/Documents/Research/Walk-IL/dataset/trc/00521_00183.trc
DataRate	CameraRate	NumFrames	NumMarkers	Units	OrigDataRate	OrigDataStartFrame	OrigNumFrames
100.000000	100.000000	4	53	mm	100.000000	0	497
Frame#	Time	RPSI			LPSI			L3			STRN			T10			C7			CLAV			RBAK			LBAK			LSHO			LUPA			LAEL			LAOL			LWTS			LWPS			LFRA			LIFD			LHPS			LHTS			RSHO			RUPA			RAEL			RAOL			RWTS			RWPS			RFRA			RIFD			RHTS			RHPS			RBHD			LFHD			RFHD			LBHD			LHIP			RHIP			RASI			LASI			LKNE			LTHI			LANK			LTIP			LTOE			LMT1			LMT5			LHEE			RKNE			RTHI			RANK			RTIP			RTOE			RMT1			RMT5			RHEE			
		X1	Y1	Z1	X2	Y2	Z2	X3	Y3	Z3	X4	Y4	Z4	X5	Y5	Z5	X6	Y6	Z6	X7	Y7	Z7	X8	Y8	Z8	X9	Y9	Z9	X10	Y10	Z10	X11	Y11	Z11	X12	Y12	Z12	X13	Y13	Z13	X14	Y14	Z14	X15	Y15	Z15	X16	Y16	Z16	X17	Y17	Z17	X18	Y18	Z18	X19	Y19	Z19	X20	Y20	Z20	X21	Y21	Z21	X22	Y22	Z22	X23	Y23	Z23	X24	Y24	Z24	X25	Y25	Z25	X26	Y26	Z26	X27	Y27	Z27	X28	Y28	Z28	X29	Y29	Z29	X30	Y30	Z30	X31	Y31	Z31	X32	Y32	Z32	X33	Y33	Z33	X34	Y34	Z34	X35	Y35	Z35	X36	Y36	Z36	X37	Y37	Z37	X38	Y38	Z38	X39	Y39	Z39	X40	Y40	Z40	X41	Y41	Z41	X42	Y42	Z42	X43	Y43	Z43	X44	Y44	Z44	X45	Y45	Z45	X46	Y46	Z46	X47	Y47	Z47	X48	Y48	Z48	X49	Y49	Z49	X50	Y50	Z50	X51	Y51	Z51	X52	Y52	Z52	X53	Y53	Z53	

1	0	-1175.387573242188	969.6417236328125	-422.3788757324219	-1150.508056640625	970.957275390625	-543.4124145507812	-1175.670532226562	1030.158203125	-487.8385009765625	-955.4973754882812	1198.81689453125	-460.4360961914062	-1190.86083984375	1136.432739257812	-486.32568359375	-1141.874877929688	1366.394165039062	-476.5660400390625	-990.3607788085938	1294.700805664062	-463.9419555664062	-1199.21337890625	1243.710815429688	-398.0613403320312	-1158.285278320312	1312.332275390625	-565.7203979492188	-1059.630981445312	1363.605712890625	-629.875	-1069.198974609375	1238.771728515625	-691.50927734375	-1062.51611328125	1029.80224609375	-721.2451171875	-1134.940063476562	1021.05126953125	-652.9024658203125	-975.0927734375	842.6138916015625	-686.2788696289062	-1053.9208984375	805.7854614257812	-725.6781616210938	-1045.134765625	944.91015625	-724.8447875976562	-964.8251342773438	687.4901733398438	-680.8446655273438	-1028.062866210938	753.5386962890625	-723.5493774414062	-964.883544921875	766.3406372070312	-707.766357421875	-1105.765747070312	1361.128173828125	-324.2615966796875	-1129.896362304688	1293.26953125	-270.4736328125	-1137.701416015625	1026.090698242188	-231.7214660644531	-1174.759643554688	1007.238220214844	-283.3970336914062	-1027.542602539062	828.48681640625	-220.9763641357422	-1113.13818359375	800.5535888671875	-205.7757110595703	-1136.08642578125	971.7732543945312	-223.4943542480469	-1022.19921875	669.3798828125	-209.5796661376953	-1020.643859863281	737.94775390625	-189.4103546142578	-1090.146850585938	732.1546020507812	-195.1868438720703	-1108.322509765625	1525.194091796875	-386.3724365234375	-961.4815673828125	1584.418212890625	-508.574462890625	-981.6398315429688	1578.8408203125	-383.1989440917969	-1098.34423828125	1528.435424804688	-545.6069946289062	-1023.671264648438	895.0167846679688	-654.5064086914062	-1097.548095703125	865.9308471679688	-282.8806762695312	-985.8308715820312	907.1430053710938	-328.343505859375	-944.6357421875	923.7374877929688	-567.214599609375	-1047.441284179688	475.2214050292969	-626.4335327148438	-1017.420959472656	630.870361328125	-640.2305908203125	-1146.356323242188	51.15277099609375	-631.325927734375	-1086.771850585938	332.8230285644531	-638.0032958984375	-960.743408203125	38.71809768676758	-538.694091796875	-1041.713256835938	43.49982452392578	-519.919189453125	-1035.4658203125	48.50428771972656	-619.5724487304688	-1203.21240234375	46.73047637939453	-575.662841796875	-1126.483154296875	481.7171936035156	-311.2378234863281	-1083.355834960938	737.91552734375	-274.3728637695312	-1185.326049804688	48.44895553588867	-351.68408203125	-1132.193115234375	340.3051452636719	-326.0359497070312	-981.0611572265625	43.32047271728516	-373.7697448730469	-1043.953735351562	51.23620223999023	-416.0531921386719	-1073.806884765625	43.69496154785156	-323.7496337890625	-1232.15673828125	41.43328857421875	-405.1855163574219	
2	0.01	-1175.348388671875	969.63427734375	-422.3914184570312	-1150.522094726562	970.9375610351562	-543.438232421875	-1175.671264648438	1030.13671875	-487.8606567382812	-955.5185546875	1198.796142578125	-460.5628356933594	-1190.8564453125	1136.431396484375	-486.3193054199219	-1141.864379882812	1366.383544921875	-476.5989074707031	-990.3291015625	1294.688720703125	-464.0704650878906	-1199.165405273438	1243.706787109375	-398.0595092773438	-1158.319458007812	1312.30615234375	-565.7371215820312	-1059.677612304688	1363.585327148438	-629.932373046875	-1069.31689453125	1238.768676757812	-691.582275390625	-1062.636108398438	1029.75439453125	-721.4120483398438	-1134.93359375	1020.967468261719	-652.9025268554688	-974.9340209960938	842.71435546875	-686.662353515625	-1053.867919921875	805.7521362304688	-725.721435546875	-1045.300537109375	944.8654174804688	-725.0165405273438	-964.5390625	687.5928955078125	-681.2207641601562	-1027.811645507812	753.5384521484375	-723.7651977539062	-964.6805419921875	766.40576171875	-708.2085571289062	-1105.691040039062	1361.140869140625	-324.2980651855469	-1129.781127929688	1293.278686523438	-270.5167236328125	-1137.575805664062	1026.08935546875	-231.7432556152344	-1174.657470703125	1007.26416015625	-283.4205627441406	-1027.5087890625	828.4336547851562	-221.1605987548828	-1113.178344726562	800.5314331054688	-205.9824676513672	-1135.96435546875	971.7639770507812	-223.5459747314453	-1022.289428710938	669.2959594726562	-209.7668914794922	-1020.611022949219	737.8300170898438	-189.6497650146484	-1090.226806640625	732.1417236328125	-195.2542114257812	-1108.245361328125	1525.173217773438	-386.3582763671875	-961.4273071289062	1584.419311523438	-508.6962890625	-981.5205078125	1578.777221679688	-383.3090209960938	-1098.358642578125	1528.447998046875	-545.6275634765625	-1023.721740722656	895.0353393554688	-654.61083984375	-1097.521606445312	865.9434814453125	-282.970703125	-985.8446044921875	907.1572265625	-328.41845703125	-944.6751098632812	923.7476806640625	-567.3787841796875	-1047.404907226562	475.2328796386719	-626.4519653320312	-1017.414672851562	630.8695068359375	-640.2509765625	-1146.360717773438	51.15566635131836	-631.3278198242188	-1086.711791992188	332.7678527832031	-638.0009765625	-960.7444458007812	38.7179069519043	-538.6929931640625	-1041.721069335938	43.49839782714844	-519.9172973632812	-1035.454223632812	48.51736068725586	-619.56982421875	-1203.215454101562	46.72664260864258	-575.659423828125	-1126.461059570312	481.7197570800781	-311.2975158691406	-1083.267456054688	737.9015502929688	-274.4365844726562	-1185.33837890625	48.4461555480957	-351.6736145019531	-1132.177978515625	340.3120422363281	-326.0399169921875	-981.0635375976562	43.32390975952148	-373.7694702148438	-1043.958984375	51.23926544189453	-416.0495300292969	-1073.80810546875	43.69518280029297	-323.7506103515625	-1232.163818359375	41.42502975463867	-405.1742858886719	
3	0.02	-1175.29833984375	969.6266479492188	-422.4146423339844	-1150.53369140625	970.919189453125	-543.4746704101562	-1175.67041015625	1030.107788085938	-487.8921813964844	-955.5340576171875	1198.772827148438	-460.7062683105469	-1190.852172851562	1136.43017578125	-486.3140258789062	-1141.849365234375	1366.369995117188	-476.6416320800781	-990.2874145507812	1294.678955078125	-464.2299499511719	-1199.106201171875	1243.701171875	-398.0560302734375	-1158.36376953125	1312.275024414062	-565.7615966796875	-1059.735473632812	1363.558837890625	-630.0050048828125	-1069.451782226562	1238.76025390625	-691.6746215820312	-1062.7529296875	1029.695434570312	-721.5951538085938	-1134.919555664062	1020.860961914062	-652.9017944335938	-974.736083984375	842.8243408203125	-687.0878295898438	-1053.789184570312	805.71435546875	-725.7794189453125	-1045.463623046875	944.8101196289062	-725.2069702148438	-964.1780395507812	687.7068481445312	-681.6455688476562	-1027.498779296875	753.5355224609375	-724.0134887695312	-964.4454345703125	766.4857177734375	-708.7174072265625	-1105.596313476562	1361.154052734375	-324.3454284667969	-1129.63427734375	1293.290283203125	-270.5726928710938	-1137.417236328125	1026.087036132812	-231.775634765625	-1174.532104492188	1007.294494628906	-283.4440612792969	-1027.451171875	828.3695678710938	-221.3975982666016	-1113.202026367188	800.5084838867188	-206.2175903320312	-1135.8076171875	971.75390625	-223.6156616210938	-1022.378967285156	669.1945190429688	-210.0175933837891	-1020.578552246094	737.6934204101562	-189.9244689941406	-1090.29833984375	732.1195678710938	-195.3719177246094	-1108.15087890625	1525.148681640625	-386.3538513183594	-961.351318359375	1584.418334960938	-508.8489379882812	-981.3762817382812	1578.705444335938	-383.4478149414062	-1098.371459960938	1528.46484375	-545.6611938476562	-1023.78173828125	895.0564575195312	-654.7410888671875	-1097.458984375	865.9425659179688	-283.0882263183594	-985.8477783203125	907.1728515625	-328.5056457519531	-944.7325439453125	923.7561645507812	-567.5790405273438	-1047.356079101562	475.2457580566406	-626.4735717773438	-1017.407592773438	630.866943359375	-640.2764282226562	-1146.363891601562	51.15760803222656	-631.3291625976562	-1086.648193359375	332.7057495117188	-638.0048828125	-960.7454223632812	38.71786880493164	-538.6918334960938	-1041.729248046875	43.49715423583984	-519.9152221679688	-1035.443603515625	48.52788925170898	-619.567138671875	-1203.218505859375	46.72319412231445	-575.65625	-1126.432250976562	481.7219543457031	-311.3653259277344	-1083.157348632812	737.8841552734375	-274.5234069824219	-1185.348876953125	48.44261169433594	-351.6636657714844	-1132.160278320312	340.3188171386719	-326.04541015625	-981.06689453125	43.32723617553711	-373.7679748535156	-1043.964233398438	51.24196243286133	-416.0458374023438	-1073.8095703125	43.69557189941406	-323.7519226074219	-1232.172119140625	41.41473388671875	-405.1632690429688	
4	0.03	-1175.23876953125	969.6200561523438	-422.4508972167969	-1150.539184570312	970.90576171875	-543.5225219726562	-1175.667358398438	1030.072265625	-487.9325561523438	-955.5385131835938	1198.748657226562	-460.853759765625	-1190.848510742188	1136.428833007812	-486.3118591308594	-1141.830078125	1366.353637695312	-476.6934509277344	-990.2373657226562	1294.674194335938	-464.4119567871094	-1199.038452148438	1243.693481445312	-398.0510864257812	-1158.416381835938	1312.24072265625	-565.7939453125	-1059.802856445312	1363.526489257812	-630.0903930664062	-1069.593383789062	1238.74365234375	-691.782958984375	-1062.848266601562	1029.628662109375	-721.7755126953125	-1134.894775390625	1020.737243652344	-652.8995361328125	-974.5062866210938	842.9314575195312	-687.5101318359375	-1053.681884765625	805.67578125	-725.8505859375	-1045.596069335938	944.7479248046875	-725.3965454101562	-963.7588500976562	687.821533203125	-682.08056640625	-1027.139770507812	753.5267944335938	-724.271240234375	-964.1907958984375	766.5760498046875	-709.2452392578125	-1105.4853515625	1361.16552734375	-324.4023742675781	-1129.46044921875	1293.303100585938	-270.6405334472656	-1137.23193359375	1026.083740234375	-231.8191070556641	-1174.390014648438	1007.326721191406	-283.4636535644531	-1027.368896484375	828.2985229492188	-221.6750335693359	-1113.197509765625	800.48681640625	-206.4604187011719	-1135.621337890625	971.7442016601562	-223.7017211914062	-1022.455139160156	669.0825805664062	-210.3266448974609	-1020.547729492188	737.5487060546875	-190.2148895263672	-1090.34765625	732.0867919921875	-195.539306640625	-1108.044555664062	1525.12255859375	-386.3649597167969	-961.255615234375	1584.41259765625	-509.02490234375	-981.2167358398438	1578.632568359375	-383.6088256835938	-1098.378784179688	1528.485107421875	-545.7107543945312	-1023.845397949219	895.0789794921875	-654.8911743164062	-1097.35205078125	865.9214477539062	-283.2287292480469	-985.8338623046875	907.1881103515625	-328.5982666015625	-944.8074951171875	923.7590942382812	-567.8016967773438	-1047.29638671875	475.2582092285156	-626.4976806640625	-1017.39990234375	630.8626708984375	-640.3060302734375	-1146.365356445312	51.15839004516602	-631.3296508789062	-1086.5859375	332.6409912109375	-638.0169677734375	-960.7463989257812	38.71804809570312	-538.6906127929688	-1041.737060546875	43.49628067016602	-519.9132080078125	-1035.434936523438	48.53475952148438	-619.5645141601562	-1203.221801757812	46.720703125	-575.6531982421875	-1126.397338867188	481.7229614257812	-311.4349670410156	-1083.03125	737.8638305664062	-274.631591796875	-1185.355834960938	48.43806076049805	-351.6553344726562	-1132.140625	340.32421875	-326.0520629882812	-981.0712890625	43.33028030395508	-373.7649230957031	-1043.96923828125	51.24377822875977	-416.0427551269531	-1073.81103515625	43.69606781005859	-323.7534484863281	-1232.18115234375	41.40193939208984	-405.154296875	
